<svg width="30" height="30" viewBox="0 0 30 30" fill="none" xmlns="http://www.w3.org/2000/svg">
<path d="M28.75 6.13195H25.7562C26.0575 5.54777 26.226 4.90641 26.25 4.25215C26.2066 3.09552 25.7019 2.00186 24.8446 1.2067C23.9873 0.411546 22.8459 -0.0215008 21.6663 0.000822108C20.2612 0.0601897 18.8989 0.492731 17.7248 1.25228C16.5508 2.01182 15.609 3.06986 15 4.31346C14.3975 3.07334 13.4629 2.01708 12.2961 1.2575C11.1292 0.497918 9.77393 0.0635595 8.375 0.000822108C8.3275 0.000822108 8.28 0.000822108 8.2325 0.000822108C7.06975 0.00264878 5.953 0.446653 5.11706 1.23949C4.28111 2.03232 3.79109 3.11222 3.75 4.25215V4.33308C3.77439 4.95912 3.93597 5.57266 4.22375 6.13195H1.25C0.918479 6.13195 0.600537 6.26115 0.366117 6.49111C0.131696 6.72107 0 7.03296 0 7.35818L0 11.0369C0 11.3621 0.131696 11.674 0.366117 11.9039C0.600537 12.1339 0.918479 12.2631 1.25 12.2631H28.75C29.0815 12.2631 29.3995 12.1339 29.6339 11.9039C29.8683 11.674 30 11.3621 30 11.0369V7.35818C30 7.03296 29.8683 6.72107 29.6339 6.49111C29.3995 6.26115 29.0815 6.13195 28.75 6.13195ZM21.705 2.45327C22.2156 2.44028 22.7118 2.61939 23.0921 2.95387C23.4723 3.28835 23.7077 3.75286 23.75 4.25215C23.7323 4.75407 23.5176 5.22986 23.1507 5.58015C22.7838 5.93045 22.2932 6.12814 21.7812 6.13195H16.8475C17.625 4.58813 19.1713 2.45327 21.705 2.45327ZM6.25 4.29261C6.282 3.79083 6.50915 3.32025 6.88457 2.97798C7.25998 2.63572 7.75502 2.44789 8.2675 2.45327C10.8538 2.46308 12.3688 4.57587 13.155 6.13195H8.28C7.76674 6.13574 7.27126 5.94772 6.89421 5.60609C6.51716 5.26445 6.28683 4.79483 6.25 4.29261Z" fill="black"/>
<path d="M17.5002 14.7157V29.4304H23.7502C24.7448 29.4304 25.6986 29.0428 26.4019 28.353C27.1052 27.6631 27.5002 26.7274 27.5002 25.7517V14.7157H17.5002Z" fill="black"/>
<path d="M12.5 14.7157H2.5V25.7517C2.5 26.7274 2.89509 27.6631 3.59835 28.353C4.30161 29.0428 5.25544 29.4304 6.25 29.4304H12.5V14.7157Z" fill="black"/>
</svg>
